<?xml version="1.0" encoding="utf-8"?>
<!-- Generator: Adobe Illustrator 24.0.1, SVG Export Plug-In . SVG Version: 6.00 Build 0)  -->
<svg version="1.1" id="Layer_1" xmlns="http://www.w3.org/2000/svg" xmlns:xlink="http://www.w3.org/1999/xlink" x="0px" y="0px"
	 viewBox="0 0 1920 1080" style="enable-background:new 0 0 1920 1080;" xml:space="preserve">
<style type="text/css">
	.st0{fill:url(#SVGID_1_);}
	.st1{display:none;}
	.st2{display:inline;fill:#A30A36;}
	.st3{fill:url(#SVGID_2_);}
	.st4{fill:url(#SVGID_3_);}
	.st5{fill:url(#SVGID_4_);}
	.st6{fill:url(#SVGID_5_);}
	.st7{fill:url(#SVGID_6_);}
	.st8{fill:url(#SVGID_7_);}
</style>
<g>
	<g>
		<linearGradient id="SVGID_1_" gradientUnits="userSpaceOnUse" x1="984.0986" y1="360.9076" x2="984.0986" y2="920.126">
			<stop  offset="0" style="stop-color:#DE1D3C"/>
			<stop  offset="1" style="stop-color:#002B4D"/>
		</linearGradient>
		<path class="st0" d="M1322.11,459.37c0,1.96-0.49,72.23-69.78,104.6c-66.58,31.02-79.26,49.24-80.37,51.07
			c0,0,0.13-0.12,0.37-0.23c37.42-20.8,70.28-12.07,98.95-42.6c0.13-0.12,0.13-0.12,0.13-0.12c-0.99,4.93-21.3,78.14-104.24,82.09
			c0,0,25.72,19.93,61.53,17.97c0,0-48.11,34.82-98.45,5.66c0,0,1.6,26.09,15.88,35.32c0,0-32,6.53-60.18-28.19
			c-2.71,18.22,0.12,37.92,0.12,37.92c-6.39-1.85-12.42-6.64-17.1-11.32c-6.28-6.28-10.22-12.56-10.22-12.56
			c-3.32,32.62,15.88,65.11,20.31,72.12c0.37,0.5,0.62,0.87,0.74,1.12c0.12,0.11,0.24,0.23,0.24,0.36c0,0-32.36-13.29-40-36.32
			c0,0.5,0,1,0.25,1.48c0,1.35,0.36,2.83,0.86,4.31c0.13,0.62,0.25,1.1,0.49,1.71c1.36,6.41,4.06,16.12,8.74,27.69
			c12.8,31.39-5.79,56.98-7.64,59.45c-0.12,0-0.12,0.12-0.12,0.12s-0.25-30.52-14.89-49.47c0,0,2.46,27.44-5.17,53.17
			c-2.83,9.47-8.37,19.82-13.9,30.16c-0.37,0.73-0.49,1.1-0.49,1.1c8.98-43.67-16.37-69.65-29.41-30.27
			c-14.28,43.08,13.05,80.74,15.75,84.42c-72.12-43.92-48.12-139.67-46.89-144.71c-24.99,27.92-21.91,55.61-21.91,55.61
			s0,0-0.12-0.12c-1.23-1.96-15.5-24.61-3.45-60.06c7.38-21.89,6.15-34.59,6.15-34.59s0,0.13-0.12,0.38
			c-8,22.76-39.88,35.93-39.88,35.93s0.12-0.13,0.37-0.25c33.96-32.24,20.92-68.67,20.92-68.67c-1.23,2.58-5.3,4.8-10.34,6.76
			c-12.43,4.81-31.26,7.51-31.26,7.51c19.69-15.5,20.8-41.71,20.8-41.71c0,0.12-0.12,0.12-0.12,0.23c-0.12,0.13-0.37,0.38-0.5,0.62
			c-29.53,43.58-66.08,36.07-66.08,36.07c14.39-9.22,15.88-35.32,15.88-35.32c-50.21,29.16-98.46-5.66-98.46-5.66
			c35.93,1.96,61.54-17.97,61.54-17.97s0,0-0.13,0c-82.82-4.06-110.39-77.91-111.37-82.82c43.07,32.6,61.54,19.2,106.82,43.68
			c-1.11-1.83-13.78-20.05-80.36-51.07c-69.29-32.37-69.78-102.64-69.78-104.6c0,0,0,0.12,0.12,0.25
			c1.61,2.83,15.26,25.48,60.93,42.21c42.58,15.75,64.48,41.6,69.29,47.87c0.36,0.5,0.73,0.87,0.98,1.35c0,0,0-0.11-0.13-0.48
			c-1.36-4.68-14.52-43.44-87.13-80.49c-77.41-39.5-67.69-109.17-67.69-109.17s0.24,0.38,0.62,1.23
			c4.67,7.39,31.13,46.16,101.41,67.94c78.02,24.13,106.2,69.79,106.2,69.79c-4.43-22.41-13.9-40.61-14.76-42.46
			c2.82,1.6,47.26,28.67,55.26,93.16c4.67,38.26,29.41,63.74,49.71,78.63c3.08,2.21,6.04,4.31,8.74,6.05
			c13.9-28.56,13.41-37.92,13.41-37.92c-16.49-10.57-27.93-4.06-29.54-3.08c-0.11,0-0.24,0.13-0.24,0.13
			c-6.15-25,30.76-26.23,30.76-26.23s9.11-23.74,32.24-23.99c44.8-0.48,56.12-5.41,56.12-5.41c-1.97,21.16-16.62,38.28-16.62,38.28
			c13.66,18.95,22.03,38.4,27.08,53.65c21.16-14.04,48.98-39.75,53.9-80.11c8-64.49,52.43-91.57,55.26-93.16
			c-0.86,1.85-10.33,20.05-14.64,42.46c0,0,28.18-45.66,106.08-69.79c77.9-24.13,102.02-69.17,102.02-69.17s9.72,69.67-67.69,109.17
			c-72.61,37.05-85.66,75.81-87.01,80.49c0.25-0.13,0.37-0.25,0.62-0.62c4.31-5.55,26.09-32.12,69.54-48.12
			C1309.8,483.98,1322.11,459.37,1322.11,459.37z M999.37,460.97l8.87,27.32l-23.23-16.89l-23.23,16.89l8.87-27.32l-23.23-16.89
			h28.72l8.87-27.32l8.87,27.32h28.72L999.37,460.97z M936.6,465.14h19.34l-15.68,11.4l5.99,18.41l-15.68-11.4l-15.64,11.4
			l5.99-18.41l-15.68-11.4h19.38l5.99-18.41L936.6,465.14L936.6,465.14z M894.81,481.87h13.35l-10.78,7.82l4.12,12.69l-10.82-7.86
			l-10.82,7.86l4.12-12.69l-10.78-7.82h13.35l4.12-12.69l4.12,12.72V481.87z M1049.1,476.54l5.99,18.41l-15.68-11.4l-15.68,11.4
			l5.99-18.41l-15.68-11.4h19.38l5.99-18.41l5.99,18.41h19.38L1049.1,476.54z M1086.07,489.73l4.12,12.69l-10.82-7.86l-10.78,7.86
			l4.12-12.69l-10.82-7.82h13.35l4.12-12.69l4.12,12.69h13.35L1086.07,489.73z"/>
	</g>
</g>
<g class="st1">
	<path class="st2" d="M1131.96,750.36c4.27,4.73,8.09,9.88,11.54,15.31c3.4,5.46,6.34,11.25,8.77,17.27
		c4.87,12.06,7.5,25.19,7.51,38.43l0.03,2.49c0,0.83-0.08,1.65-0.11,2.48c-0.1,1.65-0.17,3.32-0.29,4.97
		c-0.41,3.29-0.7,6.62-1.38,9.88c-0.51,3.3-1.41,6.51-2.22,9.76c-0.47,1.6-1,3.19-1.5,4.78c-0.26,0.79-0.48,1.6-0.78,2.38l-0.9,2.34
		l-0.9,2.34c-0.29,0.79-0.6,1.56-0.96,2.32l-2.08,4.57c-0.71,1.52-1.54,2.97-2.3,4.46l-1.17,2.22l-1.28,2.16
		c-3.34,5.81-7.27,11.25-11.48,16.45l-3.24,3.83c-1.1,1.26-2.27,2.45-3.4,3.68l-1.72,1.83c-0.58,0.6-1.19,1.17-1.79,1.75l-3.6,3.49
		l-3.76,3.3l-1.89,1.64l-1.96,1.55l-3.93,3.1l-4.06,2.93c-0.68,0.48-1.35,0.99-2.04,1.45l-2.09,1.37l-4.19,2.73l-4.3,2.55
		l-2.16,1.26l-2.2,1.17l-4.41,2.34l-4.5,2.15c-2.98,1.49-6.08,2.69-9.13,4.02c-1.53,0.64-3.1,1.19-4.65,1.79
		c-1.56,0.57-3.1,1.21-4.69,1.69c-3.16,1.01-6.3,2.11-9.52,2.95l-4.8,1.34l-4.85,1.14c-3.22,0.82-6.5,1.36-9.75,2.01
		c-1.63,0.34-3.27,0.54-4.91,0.79l-4.93,0.71l-4.95,0.52c-1.65,0.16-3.3,0.37-4.95,0.45c-3.31,0.19-6.61,0.49-9.93,0.51l-4.97,0.11
		c-1.66,0.03-3.31-0.04-4.97-0.06c-1.66-0.04-3.31-0.05-4.97-0.13l-4.96-0.31c-3.31-0.15-6.61-0.59-9.91-0.91
		c-1.65-0.14-3.29-0.43-4.93-0.66l-4.92-0.72l-4.9-0.92c-1.63-0.31-3.27-0.58-4.88-0.99c-3.23-0.77-6.48-1.48-9.66-2.43
		c-1.6-0.45-3.2-0.88-4.79-1.36l-4.74-1.54l-2.37-0.77l-2.34-0.86l-4.68-1.74c-1.55-0.6-3.08-1.27-4.61-1.91
		c-1.53-0.66-3.08-1.27-4.57-2.01c-12.06-5.62-23.66-12.38-34.1-20.74c-5.28-4.09-10.22-8.63-14.91-13.4l-3.43-3.67
		c-1.14-1.23-2.18-2.54-3.28-3.81l-1.62-1.92c-0.53-0.64-1.03-1.33-1.54-1.99l-3.04-4c-3.88-5.47-7.39-11.21-10.4-17.21
		c-2.92-6.04-5.53-12.24-7.38-18.69c-0.27-0.79-0.48-1.6-0.68-2.42l-0.61-2.44l-0.61-2.43c-0.2-0.81-0.32-1.64-0.49-2.46
		c-0.3-1.65-0.63-3.28-0.91-4.93l-0.6-4.97c-0.62-6.64-0.8-13.31-0.21-19.91c1.14-13.2,4.75-26.08,10.52-37.72
		c2.88-5.83,6.23-11.37,10-16.59c3.82-5.17,7.97-10.06,12.53-14.51c-3.75,5.14-7.22,10.44-10.19,15.99
		c-3.02,5.51-5.61,11.22-7.66,17.08c-4.13,11.71-6.3,23.96-6.21,36.12c0.08,12.17,2.35,24.17,6.53,35.39l1.67,4.17
		c0.57,1.38,1.25,2.72,1.86,4.09l0.94,2.04l1.06,1.98c0.72,1.31,1.38,2.65,2.14,3.94c3.01,5.18,6.48,10.07,10.15,14.79
		c15.11,18.64,35.35,32.88,57.5,42.35c11.08,4.77,22.69,8.33,34.52,10.8c11.82,2.56,23.93,3.79,36.04,4.03
		c12.11,0.26,24.27-0.5,36.2-2.53c11.94-1.95,23.69-5.06,35.01-9.27c2.8-1.13,5.66-2.13,8.39-3.41l4.14-1.83l4.05-2l2.03-1
		l1.98-1.08l3.98-2.16l3.88-2.32l1.94-1.16c0.64-0.39,1.26-0.83,1.89-1.24l3.77-2.49l3.65-2.65l1.83-1.33l1.76-1.41l3.53-2.81
		l3.39-2.97c0.56-0.5,1.14-0.98,1.69-1.49l1.62-1.56c1.07-1.05,2.19-2.07,3.22-3.15l3.08-3.28c8.07-8.87,14.98-18.85,19.99-29.77
		l0.96-2.04c0.32-0.68,0.57-1.39,0.85-2.08c0.55-1.4,1.13-2.79,1.66-4.19c0.92-2.86,1.96-5.7,2.67-8.63c0.87-2.9,1.37-5.87,2-8.84
		c0.23-1.49,0.42-3,0.64-4.5c0.1-0.75,0.23-1.5,0.29-2.26l0.18-2.27c1.12-12.12-0.13-24.5-3.35-36.48
		c-1.61-5.99-3.78-11.87-6.41-17.58C1138.51,761.24,1135.39,755.73,1131.96,750.36z"/>
</g>
<g>
	<g>
		<linearGradient id="SVGID_2_" gradientUnits="userSpaceOnUse" x1="775.4723" y1="295.2427" x2="775.4723" y2="374.7632">
			<stop  offset="0" style="stop-color:#DE1D3C"/>
			<stop  offset="1" style="stop-color:#19294B"/>
		</linearGradient>
		<path class="st3" d="M806.53,343.68c0,9.15-3.33,16.62-10,22.41c-6.67,5.78-13.68,8.68-21.03,8.68c-7.35,0-14.37-2.89-21.06-8.68
			c-6.69-5.78-10.03-13.25-10.03-22.41v-48.44h13.68v48.44c0,4.18,1.62,8.16,4.87,11.95c3.24,3.78,7.42,5.68,12.54,5.68
			c5.26,0,9.38-1.86,12.35-5.57c2.97-3.71,4.46-7.73,4.46-12.06v-48.44h14.22V343.68z"/>
		<linearGradient id="SVGID_3_" gradientUnits="userSpaceOnUse" x1="866.2419" y1="295.2427" x2="866.2419" y2="373.6816">
			<stop  offset="0" style="stop-color:#DE1D3C"/>
			<stop  offset="1" style="stop-color:#19294B"/>
		</linearGradient>
		<path class="st4" d="M875.05,373.63c-0.47,0.04-0.78,0.05-0.92,0.05H858.3c-10.09,0-17.21-4.95-21.35-14.87h-0.05
			c-0.36-1.05-0.66-1.96-0.89-2.76c-0.23-0.79-0.43-1.59-0.59-2.41s-0.24-1.52-0.24-2.14c0.29,0,1.18,0,2.68,0
			c1.5,0,3.13-0.01,4.89-0.03c1.77-0.02,4-0.03,6.7-0.03l1.08,2.65c0.07,0.18,0.16,0.41,0.27,0.7c0.18,0.65,0.48,1.32,0.89,2.03
			c0.41,0.7,1.13,1.32,2.14,1.84c1.01,0.52,2.5,0.78,4.49,0.78h15.84c0.61,0,1.12-0.05,1.51-0.16l1.03-0.16
			c0.11-0.04,0.25-0.09,0.43-0.16c0.18-0.07,0.34-0.14,0.49-0.22l0.59-0.22c0.83-0.4,1.68-0.92,2.54-1.57l0.16-0.22
			c1.12-1.22,1.78-2.74,2-4.54l0.11-0.49c0.04-0.43,0.05-0.85,0.05-1.24c0-0.36-0.02-0.74-0.05-1.14c-0.07-0.72-0.26-1.57-0.57-2.54
			c-0.31-0.97-0.84-1.87-1.59-2.7c-2.2-1.69-4.45-2.54-6.76-2.54H858.3c-4.43,0-7.79-0.66-10.08-1.97c-2.29-1.31-3.97-2.55-5.05-3.7
			l-0.49-0.43c-0.14-0.07-0.32-0.23-0.54-0.49c-2.05-1.87-3.71-4.22-4.97-7.03c-1.33-3.03-2-6.22-2-9.57c0-0.68,0.02-1.37,0.05-2.05
			c0.22-2.56,0.87-5.06,1.95-7.51c0.83-1.8,1.78-3.39,2.87-4.76l0.38-0.43l0.05-0.05c0-0.04,0.02-0.05,0.05-0.05l0.86-0.97
			c0.4-0.43,0.83-0.85,1.3-1.24c2.13-2.09,4.47-3.6,7.03-4.54c2.74-1.01,5.6-1.51,8.6-1.51h15.84c0.25,0,0.56,0.02,0.92,0.05
			c2.7,0.32,5.22,0.97,7.57,1.95c1.26,0.47,2.5,1.05,3.73,1.73l0.76,0.43c1.55,1.01,2.9,2.11,4.05,3.3l0.05,0.05h0.16l1.3,1.84
			l0.05,0.05v0.05l0.65,0.97c1.01,1.62,1.8,3.32,2.38,5.08c0.14,0.54,0.25,1.01,0.32,1.41l1.24,5.14l-14.27,0.05l-1.08-2.7
			c-0.11-0.25-0.49-0.79-1.14-1.62c-0.65-0.83-1.55-1.63-2.7-2.4c-1.15-0.77-2.49-1.16-4-1.16H858.3c-1.77,0-3.3,0.32-4.6,0.97
			c-0.25,0.11-0.49,0.23-0.7,0.38c-0.07,0.04-0.16,0.11-0.27,0.22l-0.27,0.22c-0.04,0.04-0.07,0.07-0.11,0.11
			c-0.04,0-0.07,0.02-0.11,0.05c-0.22,0.18-0.38,0.32-0.49,0.43l-0.05,0.05l-0.16,0.22c-1.8,1.8-2.7,3.89-2.7,6.27
			c0,0.83,0.11,1.6,0.32,2.32c0.4,1.51,1.26,2.92,2.59,4.22c1.55,1.62,3.73,2.43,6.54,2.43h15.78c5.69,0,10.92,2.02,15.68,6.05
			l0.16,0.16c0,0.04,0.04,0.07,0.11,0.11c0.04,0.04,0.07,0.07,0.11,0.11c2.13,1.91,3.82,4.29,5.08,7.14
			c0.54,1.23,0.99,2.52,1.35,3.89c0.47,1.91,0.7,3.8,0.7,5.68c0,3.35-0.67,6.54-2,9.57c-0.72,1.62-1.59,3.08-2.59,4.38
			c-0.72,1.01-1.68,2.05-2.87,3.14c-0.76,0.58-1.39,1.03-1.89,1.35c-0.47,0.32-0.97,0.65-1.51,0.97c-1.12,0.61-2.4,1.21-3.84,1.78
			C880.3,372.62,877.79,373.27,875.05,373.63z"/>
		<linearGradient id="SVGID_4_" gradientUnits="userSpaceOnUse" x1="956.4714" y1="295.2427" x2="956.4714" y2="373.6816">
			<stop  offset="0" style="stop-color:#DE1D3C"/>
			<stop  offset="1" style="stop-color:#19294B"/>
		</linearGradient>
		<path class="st5" d="M995.1,373.68h-15.19l-23.84-56.38l-23.3,56.38h-14.92l33.08-78.44h10.22L995.1,373.68z"/>
		<linearGradient id="SVGID_5_" gradientUnits="userSpaceOnUse" x1="1043.1876" y1="327.4613" x2="1043.1876" y2="341.1379">
			<stop  offset="0" style="stop-color:#DE1D3C"/>
			<stop  offset="1" style="stop-color:#19294B"/>
		</linearGradient>
		<path class="st6" d="M1023.73,341.14v-13.68h38.92v13.68H1023.73z"/>
		<linearGradient id="SVGID_6_" gradientUnits="userSpaceOnUse" x1="1126.2808" y1="295.2427" x2="1126.2808" y2="373.6816">
			<stop  offset="0" style="stop-color:#DE1D3C"/>
			<stop  offset="1" style="stop-color:#19294B"/>
		</linearGradient>
		<path class="st7" d="M1154.04,368.17c-4.43,3.68-9.75,5.51-15.95,5.51h-46.81v-78.44h46.81c2.63,0,5.14,0.5,7.51,1.51
			c3.78,1.37,6.95,3.35,9.51,5.95l0.22,0.22c1.87,2.2,3.35,4.85,4.43,7.95c1.01,2.45,1.51,4.96,1.51,7.51v32.11
			C1161.28,357.77,1158.87,363.66,1154.04,368.17z M1104.95,309.46v50h33.68c2.38,0,4.4-0.83,6.05-2.49
			c1.59-1.98,2.38-4.14,2.38-6.49v-32.11c0-2.31-0.79-4.47-2.38-6.49c-1.66-1.62-3.68-2.43-6.05-2.43H1104.95z"/>
		<linearGradient id="SVGID_7_" gradientUnits="userSpaceOnUse" x1="1220.3752" y1="295.2427" x2="1220.3752" y2="373.6816">
			<stop  offset="0" style="stop-color:#DE1D3C"/>
			<stop  offset="1" style="stop-color:#19294B"/>
		</linearGradient>
		<path class="st8" d="M1220.78,351.57l23.3-56.33H1259l-33.08,78.44h-10.22l-33.95-78.44h15.19L1220.78,351.57z"/>
	</g>
</g>
</svg>
